<?xml version="1.0" standalone="no"?>
<!DOCTYPE svg PUBLIC "-//W3C//DTD SVG 20010904//EN"
 "http://www.w3.org/TR/2001/REC-SVG-20010904/DTD/svg10.dtd">
<svg version="1.0" xmlns="http://www.w3.org/2000/svg"
 width="700.000000pt" height="700.000000pt" viewBox="0 0 700.000000 700.000000"
 preserveAspectRatio="xMidYMid meet">
<metadata>
Created by potrace 1.14, written by Peter Selinger 2001-2017
</metadata>
<g transform="translate(0.000000,700.000000) scale(0.100000,-0.100000)"
fill="#000000" stroke="none">
<path d="M29 6978 c-1 -2 -2 -1572 -3 -3490 l-1 -3488 782 0 782 0 0 1261 c-1
693 1 1263 4 1265 5 6 1187 5 1272 -1 321 -21 525 -77 692 -188 66 -44 168
-140 215 -202 12 -16 25 -32 28 -35 13 -12 82 -122 122 -195 41 -73 65 -117
193 -360 54 -101 204 -385 260 -490 23 -44 68 -129 100 -190 32 -60 72 -137
90 -170 18 -33 63 -118 100 -190 37 -72 78 -148 90 -170 12 -22 57 -106 99
-188 l78 -147 904 0 c497 0 904 2 904 5 0 3 -46 90 -101 193 -56 103 -119 221
-142 262 -22 41 -52 98 -67 125 -15 28 -44 82 -65 120 -21 39 -50 93 -65 120
-15 28 -45 84 -68 125 -22 41 -104 194 -182 340 -79 146 -159 294 -178 330
-233 435 -293 538 -391 670 -202 272 -414 425 -738 531 l-132 44 -1 41 0 41
98 13 c53 7 111 14 127 16 17 2 55 9 85 15 30 5 66 12 80 15 206 38 474 130
653 223 475 246 773 642 876 1161 38 195 46 292 45 535 -5 687 -283 1232 -809
1586 -91 61 -91 61 -240 139 -217 113 -563 223 -830 265 -150 23 -240 35 -305
41 -41 3 -91 9 -110 12 -35 5 -4249 15 -4251 10z m4061 -1412 c127 -12 203
-24 236 -36 13 -5 24 -7 24 -5 0 7 172 -55 215 -78 261 -140 379 -398 376
-822 -2 -214 -33 -378 -96 -510 -107 -221 -290 -332 -645 -391 -25 -4 -622 -9
-1327 -11 l-1283 -4 0 33 c0 18 -1 437 -3 930 -2 891 -2 897 18 900 44 6 2415
0 2485 -6z"/>
</g>
</svg>
